<svg xmlns="http://www.w3.org/2000/svg" viewBox="0 0 257.659 189.275"><style>
.logo-black{fill:#000000;}
.logo-orange{fill:#ea5b0c;}
.logo-blue{fill:#0090d7;}
.logo-bg{fill:#ffffff;}
</style><path class="logo-bg" d="M250.302,4.862c4.699,11.181,7.356,23.627,7.356,37.044,0,44.394-21.704,75.107-65.094,88.735L5.218,187.866l-5.218,1.409V0h248.164l2.139,4.862Z" /><path class="logo-black" d="M62.622,50.668c-4.81,0-8.135,3.151-8.659,7.612h16.881c-.788-4.026-3.586-7.612-8.222-7.612M62.796,82.337c-13.122,0-19.944-9.098-19.944-20.031,0-11.547,8.311-20.035,19.77-20.035,10.935,0,18.195,8.572,18.195,20.035,0,1.661-1.049,3.41-3.76,3.41h-23.269c.524,4.548,3.414,8.309,9.449,8.309,3.325,0,6.033-.964,8.047-2.535,1.223-.964,2.274-1.75,3.848-1.75,2.626,0,4.2,1.663,4.2,3.848,0,2.45-1.926,4.113-3.762,5.249-2.884,1.839-6.735,3.501-12.772,3.501M181.636,70.612c0-7.786-5.951-10.322-14.256-12.596-5.605-1.484-7.264-2.274-7.264-4.461,0-2.098,2.187-2.888,5.421-2.888,2.187,0,4.111.439,6.472,1.401,1.663.701,3.238,1.659,4.635,1.659,2.89,0,4.028-1.659,4.028-3.846,0-2.361-2.274-4.198-5.338-5.599-2.975-1.397-6.211-2.013-9.532-2.013-10.325,0-15.659,4.988-15.659,11.372,0,6.124,3.236,10.5,14.345,13.472,5.16,1.397,7.175,2.274,7.175,4.374,0,2.011-2.187,3.147-5.514,3.147-3.671,0-6.557-1.484-8.394-2.622-1.227-.788-2.365-1.488-4.115-1.488-2.098,0-3.846,1.399-3.846,3.412,0,1.663.612,3.238,2.274,4.461,3.321,2.448,8.396,3.939,13.821,3.939,9.884,0,15.746-4.726,15.746-11.725M146.206,77.086c0,2.886-2.361,5.247-5.247,5.247s-5.253-2.361-5.253-5.247v-16.271c0-5.071-2.535-9.094-7.96-9.094-5.86,0-8.222,4.459-8.222,9.094v16.271c0,2.886-2.361,5.247-5.249,5.247s-5.247-2.361-5.247-5.247v-29.128c0-3.325,2.274-5.336,5.247-5.336s5.249,2.011,5.249,5.336v.699c2.102-3.849,5.864-6.385,11.285-6.385,9.797,0,15.396,7.523,15.396,18.021v16.793Z" /><path class="logo-orange" d="M103.124,47.623c0-3.412-2.363-5.336-5.249-5.336-.526,0-1.223.174-1.748.348l-10.587,3.162c-2.276.701-3.412,2.276-3.412,4.55,0,2.888,2.448,4.9,4.988,4.9.348,0,.697-.087,1.047-.174l14.961-4.498v-2.953ZM97.875,25.567c3.623,0,6.559,2.938,6.559,6.563s-2.936,6.559-6.559,6.559-6.563-2.938-6.563-6.559,2.94-6.563,6.563-6.563" /><path class="logo-blue" d="M92.624,56.256v20.831c0,2.886,2.452,5.247,5.249,5.247,2.886,0,5.251-2.361,5.251-5.247v-23.989l-10.5,3.159Z" /><path class="logo-black logo-claim" d="M106.285,91.217c-.306,0-.54.24-.54.552v7.149c0,.314.234.554.54.554s.54-.24.54-.554v-7.149c0-.312-.234-.552-.54-.552M134.234,98.738c1.312,0,2.518-.625,2.518-1.595,0-1.01-1.223-1.616-2.446-1.616-1.399,0-2.299.643-2.299,1.616,0,.989.9,1.595,2.228,1.595M134.234,91.145c2.266,0,3.596,1.229,3.596,3.447v4.326c0,.296-.196.554-.54.554-.341,0-.538-.257-.538-.554v-.401c-.614.697-1.581,1.026-2.679,1.026-1.922,0-3.147-1.026-3.147-2.4,0-1.469,1.314-2.441,3.308-2.441,1.169,0,2.104.495,2.518.991v-1.082c0-1.742-.846-2.533-2.607-2.533-.861,0-1.51.186-2.21.478-.056.017-.143.056-.252.056-.288,0-.466-.164-.466-.459,0-.184.124-.331.267-.404.703-.366,1.546-.604,2.75-.604M106.285,88.246c-.377,0-.681.314-.681.699s.304.697.681.697.683-.312.683-.697-.306-.699-.683-.699M112.995,91.143c-1.312,0-2.355.569-2.932,1.577v-.952c0-.312-.232-.552-.538-.552s-.538.24-.538.552v7.151c0,.312.232.552.538.552s.538-.24.538-.552v-3.832c0-1.798,1.169-2.934,2.698-2.934,1.672,0,2.516,1.045,2.516,2.696v4.07c0,.312.234.552.538.552.306,0,.54-.24.54-.552v-4.09c0-2.129-1.275-3.687-3.36-3.687M126.688,94.867c-1.69-.495-2.193-.881-2.193-1.632,0-.844.863-1.192,2.03-1.192.72,0,1.477.238,2.052.552.161.091.285.163.43.163.288,0,.451-.182.451-.42,0-.24-.199-.404-.484-.552-.757-.422-1.622-.643-2.429-.643-1.852,0-3.091.701-3.091,2.129,0,1.155.755,1.906,3.145,2.586,1.15.329,2.067.606,2.067,1.521,0,.807-.755,1.32-2.013,1.32-.881,0-1.779-.312-2.464-.863-.108-.089-.232-.163-.412-.163-.234,0-.414.163-.414.403,0,.147.074.312.215.422.774.66,1.835,1.045,3.021,1.045,1.995,0,3.108-.935,3.108-2.218,0-1.45-1.239-1.924-3.019-2.458M171.597,94.793c-.141-1.539-1.239-2.733-2.785-2.733-1.581,0-2.733,1.229-2.876,2.733h5.661ZM168.812,91.145c2.212,0,3.774,1.759,3.774,4.107,0,.257-.215.459-.447.459h-6.238c.052,1.467,1.132,2.897,3.019,2.897,1.006,0,1.796-.366,2.444-1.155.091-.11.215-.236.414-.236.286,0,.449.217.449.459,0,.126-.037.219-.108.329-.612.861-1.779,1.539-3.199,1.539-2.57,0-4.115-1.98-4.115-4.198,0-2.237,1.633-4.2,4.006-4.2M178.272,91.143c-1.312,0-2.353.569-2.928,1.577v-.952c0-.312-.234-.552-.54-.552s-.538.24-.538.552v7.151c0,.312.232.552.538.552s.54-.24.54-.552v-3.832c0-1.798,1.167-2.934,2.696-2.934,1.67,0,2.516,1.045,2.516,2.696v4.07c0,.312.234.552.54.552s.538-.24.538-.552v-4.09c0-2.129-1.275-3.687-3.362-3.687M152.421,91.143c-1.31,0-2.355.569-2.928,1.577v-5.208c0-.312-.232-.55-.54-.55-.306,0-.538.238-.538.55v11.407c0,.312.232.552.538.552.308,0,.54-.24.54-.552v-3.832c0-1.798,1.169-2.934,2.696-2.934,1.67,0,2.516,1.045,2.516,2.696v4.07c0,.312.234.552.54.552.304,0,.54-.24.54-.552v-4.09c0-2.129-1.277-3.687-3.364-3.687M143.549,92.097c1.059,0,1.726.368,2.373,1.155.089.11.195.221.377.221.288,0,.521-.184.521-.457,0-.13-.035-.221-.108-.331-.538-.826-1.69-1.543-3.162-1.543-2.355,0-4.117,1.798-4.117,4.2s1.761,4.2,4.117,4.2c1.473,0,2.624-.714,3.162-1.541.074-.11.108-.201.108-.329,0-.275-.232-.457-.521-.457-.182,0-.288.108-.377.219-.646.788-1.314,1.155-2.373,1.155-1.763,0-3.039-1.448-3.039-3.248s1.275-3.246,3.039-3.246M160.701,94.867c-1.69-.495-2.193-.881-2.193-1.632,0-.844.863-1.192,2.032-1.192.718,0,1.475.238,2.048.552.163.091.29.163.432.163.29,0,.449-.182.449-.42,0-.24-.197-.404-.484-.552-.755-.422-1.618-.643-2.427-.643-1.85,0-3.093.701-3.093,2.129,0,1.155.757,1.906,3.147,2.586,1.15.329,2.067.606,2.067,1.521,0,.807-.757,1.32-2.013,1.32-.881,0-1.781-.312-2.462-.863-.108-.089-.234-.163-.414-.163-.234,0-.414.163-.414.403,0,.147.072.312.217.422.772.66,1.833,1.045,3.019,1.045,1.993,0,3.11-.935,3.11-2.218,0-1.45-1.241-1.924-3.021-2.458M77.167,91.217c-1.277,0-2.247.79-2.59,1.837v-1.285c0-.312-.215-.552-.538-.552-.306,0-.54.221-.54.552v7.149c0,.294.254.554.54.554.306,0,.538-.259.538-.554v-3.17c0-2.055,1.043-3.557,2.59-3.557.288,0,.54-.166.54-.495,0-.294-.234-.478-.54-.478M82.067,98.389c1.726,0,3.056-1.448,3.056-3.174s-1.33-3.17-3.056-3.17c-1.798,0-3.037,1.244-3.037,3.17s1.239,3.174,3.037,3.174M85.663,91.217c.304,0,.538.24.538.552v6.913c0,2.475-1.258,4.219-4.134,4.219-1.401,0-2.497-.387-3.199-.824-.161-.093-.323-.24-.323-.478,0-.255.18-.403.412-.403.164,0,.323.072.468.147.737.403,1.601.658,2.642.658,2.23,0,3.056-1.376,3.056-3.244v-1.157c-.629,1.045-1.887,1.688-3.162,1.688-2.195,0-3.993-1.597-3.993-4.072s1.798-4.072,3.993-4.072c1.599,0,2.696.902,3.162,1.688v-1.063c0-.312.234-.552.54-.552M59.082,91.143c-1.312,0-2.355.569-2.93,1.577v-.952c0-.312-.232-.552-.538-.552-.308,0-.54.24-.54.552v7.151c0,.312.232.552.54.552.306,0,.538-.24.538-.552v-3.832c0-1.798,1.169-2.934,2.698-2.934,1.67,0,2.514,1.045,2.514,2.696v4.07c0,.312.234.552.54.552s.54-.24.54-.552v-4.09c0-2.129-1.275-3.687-3.362-3.687M70.834,94.793c-.145-1.539-1.241-2.733-2.787-2.733-1.581,0-2.731,1.229-2.876,2.733h5.663ZM68.047,91.145c2.21,0,3.776,1.759,3.776,4.107,0,.257-.217.459-.451.459h-6.238c.054,1.467,1.134,2.897,3.021,2.897,1.006,0,1.798-.366,2.444-1.155.089-.11.215-.236.412-.236.288,0,.451.217.451.459,0,.126-.037.219-.108.329-.612.861-1.779,1.539-3.199,1.539-2.57,0-4.117-1.98-4.117-4.198,0-2.237,1.635-4.2,4.008-4.2M52.407,94.793c-.143-1.539-1.241-2.733-2.787-2.733-1.579,0-2.731,1.229-2.874,2.733h5.661ZM49.62,91.145c2.212,0,3.776,1.759,3.776,4.107,0,.257-.215.459-.449.459h-6.238c.054,1.467,1.132,2.897,3.019,2.897,1.006,0,1.796-.366,2.444-1.155.091-.11.217-.236.414-.236.286,0,.449.217.449.459,0,.126-.035.219-.108.329-.61.861-1.779,1.539-3.199,1.539-2.568,0-4.115-1.98-4.115-4.198,0-2.237,1.635-4.2,4.006-4.2M88.92,88.246c-.377,0-.683.314-.683.699s.306.697.683.697.683-.312.683-.697-.306-.699-.683-.699M97.876,94.793c-.143-1.539-1.243-2.733-2.787-2.733-1.581,0-2.733,1.229-2.876,2.733h5.663ZM95.089,91.145c2.212,0,3.774,1.759,3.774,4.107,0,.257-.215.459-.449.459h-6.238c.056,1.467,1.132,2.897,3.019,2.897,1.008,0,1.798-.366,2.444-1.155.093-.11.217-.236.414-.236.288,0,.449.217.449.459,0,.126-.035.219-.106.329-.612.861-1.781,1.539-3.201,1.539-2.568,0-4.117-1.98-4.117-4.198,0-2.237,1.637-4.2,4.01-4.2M88.92,91.217c.306,0,.538.24.538.552v7.149c0,.314-.232.554-.538.554s-.54-.24-.54-.554v-7.149c0-.312.234-.552.54-.552" /></svg>